<?xml version="1.0" encoding="UTF-8" standalone="no"?>
<!-- Created with Inkscape (http://www.inkscape.org/) -->

<svg
   xmlns:dc="http://purl.org/dc/elements/1.1/"
   xmlns:cc="http://creativecommons.org/ns#"
   xmlns:rdf="http://www.w3.org/1999/02/22-rdf-syntax-ns#"
   xmlns:svg="http://www.w3.org/2000/svg"
   xmlns="http://www.w3.org/2000/svg"
   xmlns:sodipodi="http://sodipodi.sourceforge.net/DTD/sodipodi-0.dtd"
   xmlns:inkscape="http://www.inkscape.org/namespaces/inkscape"
   id="svg2"
   version="1.1"
   inkscape:version="0.48.2 r9819"
   width="137"
   height="162"
   sodipodi:docname="puzzle_interface.svg"
   style="enable-background:new">
  <metadata
     id="metadata8">
    <rdf:RDF>
      <cc:Work
         rdf:about="">
        <dc:format>image/svg+xml</dc:format>
        <dc:type
           rdf:resource="http://purl.org/dc/dcmitype/StillImage" />
        <dc:title></dc:title>
      </cc:Work>
    </rdf:RDF>
  </metadata>
  <defs
     id="defs6">
    <filter
       inkscape:collect="always"
       id="filter2992"
       color-interpolation-filters="sRGB">
      <feBlend
         inkscape:collect="always"
         mode="lighten"
         in2="BackgroundImage"
         id="feBlend2994" />
    </filter>
  </defs>
  <sodipodi:namedview
     pagecolor="#ffffff"
     bordercolor="#666666"
     borderopacity="1"
     objecttolerance="10"
     gridtolerance="10"
     guidetolerance="10"
     inkscape:pageopacity="0"
     inkscape:pageshadow="2"
     inkscape:window-width="1440"
     inkscape:window-height="845"
     id="namedview4"
     showgrid="true"
     inkscape:zoom="3.2740012"
     inkscape:cx="59.617711"
     inkscape:cy="89.530349"
     inkscape:window-x="-2"
     inkscape:window-y="-3"
     inkscape:window-maximized="1"
     inkscape:current-layer="layer1"
     fit-margin-top="5"
     fit-margin-left="5"
     fit-margin-right="5"
     fit-margin-bottom="5">
    <inkscape:grid
       type="xygrid"
       id="grid2988"
       empspacing="5"
       visible="true"
       enabled="true"
       snapvisiblegridlinesonly="true" />
  </sodipodi:namedview>
  <g
     inkscape:groupmode="layer"
     id="layer1"
     inkscape:label="obj"
     style="opacity:0.98999999;filter:url(#filter2992)"
     transform="translate(2.0166318,7e-6)">
    <path
       sodipodi:nodetypes="czssssczsssszzzzzcsssszczssssc"
       inkscape:connector-curvature="0"
       id="path3765"
       d="m 115,41 c 0,0 -20,0 -30,0 -10,0 5,-10 5,-20 0,-5 -7.568047,-5 -15,-5 -7.431953,0 -15,0 -15,5 0,10 15,20 5,20 l -30,0 c 0,0 0,3 0,13 0,10 -10,-5 -20,-5 -5.460392,0 -5,5 -5,15 0,10 0,17.68047 5,17.68047 C 25,81.68047 35,69 35,79 c 0,0 0,5 0,15 0,10 -14.656409,-5 -20,-5 -5.3435908,0 -5,5 -5,15 0,10 0,14.64467 5,15 5,0.35533 20,-15 20,-5.47646 C 35,123.04708 35,126 35,126 c 0,0 25,0 30,0 10,0 -5,10 -5,20 0,5 5,5 15,5 10,0 15,0 15,-5 0,-10 -15,-20 -5,-20 10,0 30,0 30,0 0,0 0,-25 0,-35 0,-10 -10,10 -20,10 -5,0 -5,-12.19527 -5,-20 0,-7.80473 0,-15 5,-15 10,0 20,15 20,5 0,-5 0,-30 0,-30 z"
       style="fill:none;stroke:#000000;stroke-width:2;stroke-linecap:butt;stroke-linejoin:miter;stroke-miterlimit:4;stroke-opacity:1;stroke-dasharray:none" />
  </g>
</svg>
