<?xml version="1.0" encoding="UTF-8" standalone="no"?>
<!-- Created with Inkscape (http://www.inkscape.org/) -->

<svg
   xmlns:dc="http://purl.org/dc/elements/1.1/"
   xmlns:cc="http://creativecommons.org/ns#"
   xmlns:rdf="http://www.w3.org/1999/02/22-rdf-syntax-ns#"
   xmlns:svg="http://www.w3.org/2000/svg"
   xmlns="http://www.w3.org/2000/svg"
   xmlns:sodipodi="http://sodipodi.sourceforge.net/DTD/sodipodi-0.dtd"
   xmlns:inkscape="http://www.inkscape.org/namespaces/inkscape"
   id="svg2"
   version="1.1"
   inkscape:version="0.48.2 r9819"
   width="292"
   height="174"
   sodipodi:docname="puzzle_seq.svg"
   enable-background="new">
  <metadata
     id="metadata8">
    <rdf:RDF>
      <cc:Work
         rdf:about="">
        <dc:format>image/svg+xml</dc:format>
        <dc:type
           rdf:resource="http://purl.org/dc/dcmitype/StillImage" />
        <dc:title></dc:title>
      </cc:Work>
    </rdf:RDF>
  </metadata>
  <defs
     id="defs6">
    <filter
       inkscape:collect="always"
       id="filter2992">
      <feBlend
         inkscape:collect="always"
         mode="lighten"
         in2="BackgroundImage"
         id="feBlend2994" />
    </filter>
  </defs>
  <sodipodi:namedview
     pagecolor="#ffffff"
     bordercolor="#666666"
     borderopacity="1"
     objecttolerance="10"
     gridtolerance="10"
     guidetolerance="10"
     inkscape:pageopacity="0"
     inkscape:pageshadow="2"
     inkscape:window-width="1440"
     inkscape:window-height="845"
     id="namedview4"
     showgrid="true"
     inkscape:zoom="1.6370006"
     inkscape:cx="93.241945"
     inkscape:cy="-14.150295"
     inkscape:window-x="-2"
     inkscape:window-y="-3"
     inkscape:window-maximized="1"
     inkscape:current-layer="layer1">
    <inkscape:grid
       type="xygrid"
       id="grid2988" />
  </sodipodi:namedview>
  <g
     inkscape:groupmode="layer"
     id="layer1"
     inkscape:label="obj"
     style="opacity:0.99;filter:url(#filter2992)">
    <path
       style="fill:none;stroke:#000000;stroke-width:2;stroke-linecap:butt;stroke-linejoin:miter;stroke-miterlimit:4;stroke-opacity:1;stroke-dasharray:none"
       d="m 115,41 c 0,0 -20,0 -30,0 -10,0 5,-10 5,-20 0,-5 -7.568047,-5 -15,-5 -7.431953,0 -15,0 -15,5 0,10 15,20 5,20 l -30,0 c 0,0 0,20 0,30 0,10 -10,-5 -20,-5 -5.460392,0 -5,10 -5,15 0,10 0,17.68047 5,17.68047 C 25,98.68047 35,86 35,96 l 0,30 c 0,0 25,0 30,0 10,0 -5,10 -5,20 0,5 5,5 15,5 10,0 15,0 15,-5 0,-10 -15,-20 -5,-20 10,0 30,0 30,0 0,0 0,-25 0,-35 0,-10 -10,10 -20,10 -5,0 -5,-12.19527 -5,-20 0,-7.80473 0,-15 5,-15 10,0 20,15 20,5 0,-5 0,-30 0,-30 z"
       id="path2990"
       inkscape:connector-curvature="0"
       sodipodi:nodetypes="czssssczsssscsssszczssssc" />
    <path
       sodipodi:nodetypes="czssssczsssscsssszczssssc"
       inkscape:connector-curvature="0"
       id="path3765"
       d="m 115,41 c 0,0 -20,0 -30,0 -10,0 5,-10 5,-20 0,-5 -7.568047,-5 -15,-5 -7.431953,0 -15,0 -15,5 0,10 15,20 5,20 l -30,0 c 0,0 0,20 0,30 0,10 -10,-5 -20,-5 -5.460392,0 -5,10 -5,15 0,10 0,17.68047 5,17.68047 C 25,98.68047 35,86 35,96 l 0,30 c 0,0 25,0 30,0 10,0 -5,10 -5,20 0,5 5,5 15,5 10,0 15,0 15,-5 0,-10 -15,-20 -5,-20 10,0 30,0 30,0 0,0 0,-25 0,-35 0,-10 -10,10 -20,10 -5,0 -5,-12.19527 -5,-20 0,-7.80473 0,-15 5,-15 10,0 20,15 20,5 0,-5 0,-30 0,-30 z"
       style="fill:none;stroke:#000000;stroke-width:2;stroke-linecap:butt;stroke-linejoin:miter;stroke-miterlimit:4;stroke-opacity:1;stroke-dasharray:none" />
    <path
       sodipodi:nodetypes="czssssczsssscsssszczssssc"
       inkscape:connector-curvature="0"
       id="path3765-0"
       d="m 280,41 c 0,0 -20,0 -30,0 -10,0 5,-10 5,-20 0,-5 -7.56805,-5 -15,-5 -7.43195,0 -15,0 -15,5 0,10 15,20 5,20 l -30,0 c 0,0 0,20 0,30 0,10 -10,-5 -20,-5 -5.46039,0 -5,10 -5,15 0,10 0,17.68047 5,17.68047 C 190,98.68047 200,86 200,96 l 0,30 c 0,0 25,0 30,0 10,0 -0.70096,-8.7 -0.70096,-18.7 0,-5 1.98534,-5 11.98534,-5 10,0 13.01466,0 13.01466,5 0,10 -14.29904,18.7 -4.29904,18.7 10,0 30,0 30,0 0,0 0,-25 0,-35 0,-10 -10,10 -20,10 -5,0 -5,-12.19527 -5,-20 0,-7.80473 0,-15 5,-15 10,0 20,15 20,5 0,-5 0,-30 0,-30 z"
       style="opacity:0.98999999;fill:none;stroke:#000000;stroke-width:2;stroke-linecap:butt;stroke-linejoin:miter;stroke-miterlimit:4;stroke-opacity:1;stroke-dasharray:none;filter:url(#filter2992)" />
    <text
       xml:space="preserve"
       style="font-size:16px;font-style:normal;font-variant:normal;font-weight:normal;font-stretch:normal;text-align:center;line-height:125%;letter-spacing:0px;word-spacing:0px;writing-mode:lr;text-anchor:middle;fill:#000000;fill-opacity:1;stroke:none;font-family:FreeSans;-inkscape-font-specification:FreeSans"
       x="75"
       y="56"
       id="text3798"
       sodipodi:linespacing="125%"><tspan
         sodipodi:role="line"
         id="tspan3800"
         x="75"
         y="56">Bio::Seq</tspan></text>
    <text
       xml:space="preserve"
       style="font-size:16px;font-style:normal;font-variant:normal;font-weight:normal;font-stretch:normal;text-align:center;line-height:125%;letter-spacing:0px;word-spacing:0px;writing-mode:lr;text-anchor:middle;fill:#000000;fill-opacity:1;stroke:none;font-family:FreeSans;-inkscape-font-specification:FreeSans"
       x="239"
       y="56"
       id="text3802"
       sodipodi:linespacing="125%"><tspan
         sodipodi:role="line"
         id="tspan3804"
         x="239"
         y="56">Bio::SeqIO</tspan></text>
    <text
       xml:space="preserve"
       style="font-size:16px;font-style:normal;font-variant:normal;font-weight:normal;font-stretch:normal;text-align:center;line-height:125%;letter-spacing:0px;word-spacing:0px;writing-mode:lr;text-anchor:middle;fill:#000000;fill-opacity:1;stroke:none;font-family:FreeSans;-inkscape-font-specification:FreeSans"
       x="75"
       y="166"
       id="text3806"
       sodipodi:linespacing="125%"><tspan
         sodipodi:role="line"
         id="tspan3808"
         x="75"
         y="166">length()</tspan></text>
    <text
       xml:space="preserve"
       style="font-size:16px;font-style:normal;font-variant:normal;font-weight:normal;font-stretch:normal;text-align:center;line-height:125%;letter-spacing:0px;word-spacing:0px;writing-mode:lr;text-anchor:middle;fill:#000000;fill-opacity:1;stroke:none;font-family:FreeSans;-inkscape-font-specification:FreeSans"
       x="162.10745"
       y="111.68109"
       id="text3810"
       sodipodi:linespacing="125%"><tspan
         sodipodi:role="line"
         id="tspan3812"
         x="162.10745"
         y="111.68109">next_seq()</tspan></text>
  </g>
</svg>
