<?xml version="1.0" encoding="UTF-8" standalone="no"?>
<!-- Created with Inkscape (http://www.inkscape.org/) -->

<svg
   xmlns:dc="http://purl.org/dc/elements/1.1/"
   xmlns:cc="http://creativecommons.org/ns#"
   xmlns:rdf="http://www.w3.org/1999/02/22-rdf-syntax-ns#"
   xmlns:svg="http://www.w3.org/2000/svg"
   xmlns="http://www.w3.org/2000/svg"
   xmlns:sodipodi="http://sodipodi.sourceforge.net/DTD/sodipodi-0.dtd"
   xmlns:inkscape="http://www.inkscape.org/namespaces/inkscape"
   id="svg2"
   version="1.1"
   inkscape:version="0.48.2 r9819"
   width="334.20001"
   height="314.39999"
   sodipodi:docname="inheritance.svg"
   style="enable-background:new">
  <metadata
     id="metadata8">
    <rdf:RDF>
      <cc:Work
         rdf:about="">
        <dc:format>image/svg+xml</dc:format>
        <dc:type
           rdf:resource="http://purl.org/dc/dcmitype/StillImage" />
        <dc:title></dc:title>
      </cc:Work>
    </rdf:RDF>
  </metadata>
  <defs
     id="defs6">
    <filter
       inkscape:collect="always"
       id="filter2992"
       color-interpolation-filters="sRGB">
      <feBlend
         inkscape:collect="always"
         mode="lighten"
         in2="BackgroundImage"
         id="feBlend2994" />
    </filter>
    <filter
       color-interpolation-filters="sRGB"
       inkscape:collect="always"
       id="filter2992-2">
      <feBlend
         inkscape:collect="always"
         mode="lighten"
         in2="BackgroundImage"
         id="feBlend2994-9" />
    </filter>
  </defs>
  <sodipodi:namedview
     pagecolor="#ffffff"
     bordercolor="#666666"
     borderopacity="1"
     objecttolerance="10"
     gridtolerance="10"
     guidetolerance="10"
     inkscape:pageopacity="0"
     inkscape:pageshadow="2"
     inkscape:window-width="1440"
     inkscape:window-height="845"
     id="namedview4"
     showgrid="true"
     inkscape:zoom="1.6370006"
     inkscape:cx="165.69339"
     inkscape:cy="196.93238"
     inkscape:window-x="-2"
     inkscape:window-y="-3"
     inkscape:window-maximized="1"
     inkscape:current-layer="layer1"
     fit-margin-top="0"
     fit-margin-left="0"
     fit-margin-right="0"
     fit-margin-bottom="0">
    <inkscape:grid
       type="xygrid"
       id="grid2988"
       empspacing="5"
       visible="true"
       enabled="true"
       snapvisiblegridlinesonly="true" />
  </sodipodi:namedview>
  <g
     inkscape:groupmode="layer"
     id="layer1"
     inkscape:label="obj"
     style="opacity:0.98999999;filter:url(#filter2992)"
     transform="translate(21.35,13.2)">
    <path
       style="fill:none;stroke:#000000;stroke-width:2;stroke-linecap:butt;stroke-linejoin:miter;stroke-miterlimit:4;stroke-opacity:1;stroke-dasharray:none"
       d="m 117.5,121.5 c 0,0 0,-20 0,-30 0,-10 10,5 20,5 5,0 5,-7.568047 5,-15 0,-7.431953 0,-15 -5,-15 -10,0 -20,15 -20,5 l 0,-30 c 0,0 -20,0 -30,0 -10,0 5,10 5,20 0,5 -8,5 -15,5 -8,0 -18,0 -18,-5 0,-10 13,-20 3,-20 l -30,0 c 0,0 0,25 0,30 0,10 -10,-5 -20,-5 -5,0 -5,5 -5,15 0,10 0,15 5,15 10,0 20,-15 20,-5 0,10 0,30 0,30 0,0 25,0 35,0 10,0 -10,-10 -10,-20 0,-5 12.19527,-5 20,-5 7.80473,0 15,0 15,5 0,10 -15,20 -5,20 5,0 30,0 30,0 z"
       id="path2990"
       inkscape:connector-curvature="0"
       sodipodi:nodetypes="czssssczsssscsssszczssssc" />
    <path
       sodipodi:nodetypes="czssssczsssscsssszczssssc"
       inkscape:connector-curvature="0"
       id="path3765"
       d="m 215,274 c 0,0 0,-20 0,-30 0,-10 10,5 20,5 5,0 5,-7.56804 5,-15 0,-7.43195 0,-15 -5,-15 -10,0 -20,15 -20,5 l 0,-30 c 0,0 -20,0 -30,0 -10,0 5,-10 5,-20 0,-5.46039 -10,-5 -15,-5 -10,0 -17.68047,0 -17.68047,5 0,10 12.68047,20 2.68047,20 l -30,0 c 0,0 0,25 0,30 0,10 -10,-5 -20,-5 -5,0 -5,5 -5,15 0,10 0,15 5,15 10,0 20,-15 20,-5 0,10 0,30 0,30 0,0 25,0 35,0 10,0 -10,-10 -10,-20 0,-5 12.19527,-5 20,-5 7.80473,0 15,0 15,5 0,10 -15,20 -5,20 5,0 30,0 30,0 z"
       style="fill:none;stroke:#000000;stroke-width:2;stroke-linecap:butt;stroke-linejoin:miter;stroke-miterlimit:4;stroke-opacity:1;stroke-dasharray:none" />
    <text
       xml:space="preserve"
       style="font-size:16px;font-style:normal;font-variant:normal;font-weight:normal;font-stretch:normal;text-align:center;line-height:125%;letter-spacing:0px;word-spacing:0px;writing-mode:lr-tb;text-anchor:middle;fill:#000000;fill-opacity:1;stroke:none;font-family:FreeSans;-inkscape-font-specification:FreeSans"
       x="251"
       y="171"
       id="text3802"
       sodipodi:linespacing="125%"><tspan
         sodipodi:role="line"
         id="tspan3804"
         x="251"
         y="171">Momma?</tspan></text>
    <path
       sodipodi:nodetypes="czssssczsssscsssszczssssc"
       inkscape:connector-curvature="0"
       id="path4663"
       d="m 284,39 c 0,0 -20,0 -30,0 -10,0 5,-10 5,-20 0,-5 -7.56805,-5 -15,-5 -7.43195,0 -15,0 -15,5 0,10 15,20 5,20 l -30,0 c 0,0 0,20 0,30 0,10 10,-5 20,-5 5,0 5,8 5,15 0,8 0,18 -5,18 -10,0 -20,-13 -20,-3 l 0,30 c 0,0 25,0 30,0 10,0 -5,10 -5,20 0,5 5,5 15,5 10,0 15,0 15,-5 0,-10 -15,-20 -5,-20 10,0 30,0 30,0 0,0 0,-25 0,-35 0,-10 -10,10 -20,10 -5,0 -5,-12.19527 -5,-20 0,-7.80473 0,-15 5,-15 10,0 20,15 20,5 0,-5 0,-30 0,-30 z"
       style="fill:none;stroke:#000000;stroke-width:2;stroke-linecap:butt;stroke-linejoin:miter;stroke-miterlimit:4;stroke-opacity:1;stroke-dasharray:none" />
    <path
       style="fill:none;stroke:#000000;stroke-width:2.02339268;stroke-linecap:butt;stroke-linejoin:miter;stroke-miterlimit:4;stroke-opacity:1;stroke-dasharray:none"
       d="m 143,82 87,0"
       id="path4665"
       inkscape:connector-curvature="0" />
    <path
       style="opacity:0.98999999;fill:none;stroke:#000000;stroke-width:2.02339268;stroke-linecap:butt;stroke-linejoin:miter;stroke-miterlimit:4;stroke-opacity:1;stroke-dasharray:none;filter:url(#filter2992)"
       d="m 141.90234,102.20234 87,0"
       id="path4665-0"
       inkscape:connector-curvature="0"
       transform="matrix(0,-1,1,0,72.79766,310.90234)" />
    <path
       style="opacity:0.98999999;fill:none;stroke:#000000;stroke-width:3.26886654;stroke-linecap:butt;stroke-linejoin:miter;stroke-miterlimit:4;stroke-opacity:1;stroke-dasharray:3.26886646, 3.26886646;stroke-dashoffset:0;filter:url(#filter2992-2)"
       d="m 141.90234,102.20234 87,0"
       id="path4665-0-6"
       inkscape:connector-curvature="0"
       transform="matrix(0.29929537,-0.22483845,0.60062713,0.79952927,112.10509,143.75229)" />
  </g>
</svg>
